<svg xmlns="http://www.w3.org/2000/svg" viewBox="0 0 220.16 38.04"><defs><style>.cls-1{fill:#fff;}</style></defs><title>logo_f</title><g id="Layer_2" data-name="Layer 2"><g id="レイヤー_1" data-name="レイヤー 1"><path class="cls-1" d="M4.18,18.83a20,20,0,0,1-2.84,2.46A5.72,5.72,0,0,0,0,19.39a17.91,17.91,0,0,0,3.3-2.68,13.32,13.32,0,0,0,2.34-3.08H2.88a18.83,18.83,0,0,0-2.34.12V11.57a19.06,19.06,0,0,0,2.34.12H6.56a8.5,8.5,0,0,0,.58-2.12l2.44.28A9.45,9.45,0,0,0,9.16,11l-.28.74h7a18.48,18.48,0,0,0,2.32-.12v2.18a18.71,18.71,0,0,0-2.32-.12H8c-.36.66-.58,1-1,1.64h6.68a18.17,18.17,0,0,0,2.06-.08,22.17,22.17,0,0,0-.08,2.24v8.18A1.68,1.68,0,0,1,15,27.19a5,5,0,0,1-2.3.32c-.44,0-.82,0-1.8-.05a6.62,6.62,0,0,0-.5-2.07,16.47,16.47,0,0,0,2.26.18c.86,0,1-.06,1-.54v-1.5H6.28v1.66a21.35,21.35,0,0,0,.1,2.46H4.06a21.86,21.86,0,0,0,.12-2.48Zm9.42-1.68H6.28v1.44H13.6ZM6.28,20.33v1.46H13.6V20.33Z"/><path class="cls-1" d="M21.17,12c0-.62,0-.94-.08-1.82a12.41,12.41,0,0,0,1.44.06h2.9a5.41,5.41,0,0,0,1.42-.1L28,11.51c-.12.26-.2.42-.6,1.5a35.83,35.83,0,0,1-1.52,3.36,7.51,7.51,0,0,1,1.4,2.5,6.67,6.67,0,0,1,.32,1.94c0,1.16-.34,1.9-1.06,2.24a5.63,5.63,0,0,1-2.5.36,4.93,4.93,0,0,0-.42-2.08,4.75,4.75,0,0,0,.88.1c.76,0,1-.22,1-.86a5.18,5.18,0,0,0-.44-2,6.9,6.9,0,0,0-1.36-2,24.05,24.05,0,0,0,1.8-4.42H23.23V25.45a19.79,19.79,0,0,0,.1,2.26H21.05a17.45,17.45,0,0,0,.12-2.26Zm9,7.12v5.62a27.3,27.3,0,0,0,3.26-.84l0,2c-2,.6-3.34.94-6.26,1.59a4.68,4.68,0,0,0-1,.27l-.4-2.22a21.54,21.54,0,0,0,2.32-.34V12.39a17,17,0,0,0-.1-2.1,10.26,10.26,0,0,0,1.9.1h5.6a13.71,13.71,0,0,0,1.82-.08c0,.46-.06.92-.06,2.16V17a19.32,19.32,0,0,0,.08,2.14,3.75,3.75,0,0,0-.54,0l1.56,1.34c-.08.06-.38.28-.54.42-.6.52-1.8,1.46-2.64,2a10,10,0,0,0,3.62,2.78,7.63,7.63,0,0,0-1.26,2,12.77,12.77,0,0,1-4.08-3.8,13.09,13.09,0,0,1-1.94-4.8Zm0-5.24h5.14v-1.6H30.15Zm0,3.46h5.14V15.59H30.15Zm3.28,1.78a9.28,9.28,0,0,0,.76,2.22,13.09,13.09,0,0,0,2.54-2.2c-.24,0-.68,0-1,0Z"/><path class="cls-1" d="M44.42,16.07a18.17,18.17,0,0,1-3.14,1.7,9.79,9.79,0,0,0-1.14-2A18.81,18.81,0,0,0,45.06,13a13,13,0,0,0,3.1-3.3h2.32A12.34,12.34,0,0,0,53.8,13a20.87,20.87,0,0,0,5,2.64,9.3,9.3,0,0,0-1.08,2.2,20.58,20.58,0,0,1-3.34-1.8v1.54a14.68,14.68,0,0,0-1.76-.08H46.1a15.26,15.26,0,0,0-1.68.08Zm-1.1,5.06a17.92,17.92,0,0,0-2.3.12V19c.64.06,1.4.1,2.3.1H55.54c1,0,1.64,0,2.3-.1v2.26a17.92,17.92,0,0,0-2.3-.12H48.8a20.87,20.87,0,0,1-2,3.8c3.46-.2,3.46-.2,6.22-.48-.62-.7-1-1.06-2.06-2.18l1.94-.86a42.3,42.3,0,0,1,4.54,5.22l-1.9,1.25c-.64-1-.84-1.25-1.16-1.71l-3.54.42c-1.94.2-5.82.54-6.6.6-1.1.08-2.08.19-2.54.27l-.3-2.39c.52,0,.86.06,1.12.06s.72,0,1.74-.08a20.86,20.86,0,0,0,2.08-3.92Zm9.3-5.66c.32,0,.48,0,.86,0a16,16,0,0,1-4.1-3.82,16.7,16.7,0,0,1-4.06,3.82c.32,0,.46,0,.8,0Z"/><path class="cls-1" d="M65.43,25.75a11,11,0,0,0,.12,2H63.17a11.6,11.6,0,0,0,.12-2V20.79a14.83,14.83,0,0,1-2.18,1.66,7.75,7.75,0,0,0-1-2,13.27,13.27,0,0,0,3.38-2.64,12.83,12.83,0,0,0,2.14-3h-3.2a13.14,13.14,0,0,0-1.66.08V12.65a11.56,11.56,0,0,0,1.54.08h1V11.09a8.77,8.77,0,0,0-.12-1.5h2.36a10.72,10.72,0,0,0-.1,1.52v1.62h.82a6.86,6.86,0,0,0,1.12-.06l.94,1c-.18.3-.28.5-.44.82A15.28,15.28,0,0,1,66,17.87a10.87,10.87,0,0,0,3.1,2.48A8.27,8.27,0,0,0,68,22.29a11.17,11.17,0,0,1-2.56-2.22Zm8.32-.92h2.34a21.61,21.61,0,0,0,2.26-.1v2.34A19.93,19.93,0,0,0,76.11,27H69.39a19,19,0,0,0-2.2.12V24.73a22.34,22.34,0,0,0,2.24.1h2.14V17.17H70.11c-.68,0-1.32,0-1.94.1V15.05a13,13,0,0,0,1.94.1h1.46V11.69a16.94,16.94,0,0,0-.12-2h2.42a13.48,13.48,0,0,0-.12,2v3.46h2.08a12.43,12.43,0,0,0,1.92-.1v2.22c-.62-.06-1.24-.1-1.92-.1H73.75Z"/><path class="cls-1" d="M97.45.56h8.11l-2.75,15.71.1.05L118.06.56h9.8L111.12,17.7l10.72,19.78H112.4l-9.9-19h-.1L99,37.48H90.92Z"/><path class="cls-1" d="M130.36,28.86a4.33,4.33,0,0,1,4.39,4.39,4.78,4.78,0,0,1-4.9,4.79,4.32,4.32,0,0,1-4.39-4.38A4.82,4.82,0,0,1,130.36,28.86Z"/><path class="cls-1" d="M146.94.56h9.34C162.51.56,167,2,170.16,4.33a15.51,15.51,0,0,1,6,12.75,20,20,0,0,1-6.89,15.2c-3.83,3.26-9,5.2-15.87,5.2h-13Zm7,29.83c4.85,0,8.17-1.37,10.46-3.77A13.23,13.23,0,0,0,168,17.54a9.08,9.08,0,0,0-3.47-7.6c-1.94-1.47-4.65-2.29-8.52-2.29h-2.2l-4,22.74Z"/><path class="cls-1" d="M182.2,28.86a4.33,4.33,0,0,1,4.39,4.39,4.78,4.78,0,0,1-4.9,4.79,4.32,4.32,0,0,1-4.39-4.38A4.82,4.82,0,0,1,182.2,28.86Z"/><path class="cls-1" d="M193.58,26c3,2.7,7.65,5.1,11.58,5.1a5.42,5.42,0,0,0,3.47-1,3.68,3.68,0,0,0,1.43-2.91c0-2.7-2.91-3.57-6.84-5.56-4.39-2.19-7.85-4.49-7.85-9.69a11.39,11.39,0,0,1,5-9.43A14.8,14.8,0,0,1,208.89,0a22.17,22.17,0,0,1,11.27,3.21l-1.42,8C215.62,8.92,211.44,7,208.22,7A5.53,5.53,0,0,0,205,7.9a3.7,3.7,0,0,0-1.43,3c0,2.5,2.6,3.37,6.43,5.25,4.8,2.35,8.27,4.59,8.27,10A11.41,11.41,0,0,1,214,35a15.23,15.23,0,0,1-9.54,3,24,24,0,0,1-12.4-3.67Z"/></g></g></svg>