<svg xmlns="http://www.w3.org/2000/svg" viewBox="0 0 78.05 22.06"><defs><style>.cls-1{fill:#9f0e15;}</style></defs><title>txt_news</title><g id="Layer_2" data-name="Layer 2"><g id="レイヤー_1" data-name="レイヤー 1"><path class="cls-1" d="M0,21.73,3.84,0H8.25l5,9.06c1,1.86,2,3.73,3,5.56l.06,0c.3-1.95.63-3.94,1-5.95L18.85,0h4.59L19.6,21.73H15.19l-5-9.06c-1-1.87-2-3.73-3-5.56l-.06,0c-.3,2-.63,3.94-1,6L4.59,21.73Z"/><path class="cls-1" d="M36.29,21.13a13.07,13.07,0,0,1-4.83.93c-4,0-7.62-2.16-7.62-6.69A9.15,9.15,0,0,1,26.42,9a8.12,8.12,0,0,1,5.82-2.4c3.51,0,6.51,2.13,6.51,6.19a10.84,10.84,0,0,1-.36,2.73h-10c.21,2,1.71,3,3.72,3a11.81,11.81,0,0,0,5-1.35Zm-1.68-8.46A2.42,2.42,0,0,0,32,10.11a3.61,3.61,0,0,0-3.3,2.56Z"/><path class="cls-1" d="M41,7h4.62l.69,4.66c.24,1.59.39,2.85.54,4.26h.06c.66-1.38,1.32-2.7,2.13-4.26L51.45,7h3.39l.75,4.66c.24,1.47.42,2.85.6,4.26h.06c.63-1.38,1.33-2.82,2-4.26L60.61,7h4.53L57.48,21.73H53.22l-.63-3.93c-.24-1.47-.42-2.79-.6-4.17h-.06q-.9,1.89-2.07,4.14l-2,4H43.44Z"/><path class="cls-1" d="M65.23,16.36a11.42,11.42,0,0,0,5.92,2.13,2.53,2.53,0,0,0,1.26-.27,1,1,0,0,0,.48-.81c0-1-1.56-1.08-3.51-1.71-2.23-.72-3.67-1.77-3.67-3.87a4.83,4.83,0,0,1,2.41-4.12,7.67,7.67,0,0,1,4.14-1.08A13,13,0,0,1,78.05,8l-.66,3.82a11.24,11.24,0,0,0-5.46-1.66,2.6,2.6,0,0,0-1.08.18.88.88,0,0,0-.54.81c0,1,1.38,1,3.39,1.63,2.28.69,3.78,1.74,3.78,3.9a5.16,5.16,0,0,1-1.77,3.84,7.29,7.29,0,0,1-4.8,1.5,13.25,13.25,0,0,1-6.4-1.68Z"/></g></g></svg>