<svg xmlns="http://www.w3.org/2000/svg" viewBox="0 0 224.08 20.04"><defs><style>.cls-1{fill:#fff;}</style></defs><title>txt_tel</title><g id="Layer_2" data-name="Layer 2"><g id="レイヤー_1" data-name="レイヤー 1"><path class="cls-1" d="M6,19.17V3.25H0V.37H15.36V3.25h-6V19.17Z"/><path class="cls-1" d="M19,19.17V.37H30.34V3.25h-8V8h6.88v2.82H22.36v5.4h8.18v3Z"/><path class="cls-1" d="M35.47,19.17V.37h3.37V16.12h8.51v3.05Z"/><path class="cls-1" d="M53.55,5.3V9.12H49.67V5.3Zm0,10.05v3.82H49.67V15.35Z"/><path class="cls-1" d="M56.35,9.82c0-6.47,1.78-9.67,6.4-9.67s6.41,3.27,6.41,9.67-1.78,9.68-6.41,9.68S56.35,16.27,56.35,9.82Zm9.45,0c0-4.75-.77-6.8-3-6.8s-3,2.05-3,6.8.75,6.8,3,6.8S65.8,14.55,65.8,9.82Z"/><path class="cls-1" d="M72.66,16.2a17.74,17.74,0,0,0,3.62.42c3,0,4.16-1.32,4.16-3.3s-1.28-3.07-3.73-3.07a9.94,9.94,0,0,0-3,.57L72.63,10l.43-9.6H83.31V3.25H76l-.23,4.5a13.79,13.79,0,0,1,2.35-.2c4,0,5.86,2.2,5.86,5.57,0,3.8-2.53,6.38-7.18,6.38a19.84,19.84,0,0,1-4.1-.38Z"/><path class="cls-1" d="M87.12,19.17V15.6c5.45-4.73,8.27-6.93,8.27-9.73C95.39,3.82,94.24,3,92.17,3a10.17,10.17,0,0,0-4.1,1V1.12a11.65,11.65,0,0,1,5-1.12c3.82,0,5.8,2.12,5.8,5.17,0,2.68-.93,5-8.28,11h8.73v3Z"/><path class="cls-1" d="M102.27,10.67h6.38v2.58h-6.38Z"/><path class="cls-1" d="M112.45,16.2a17.75,17.75,0,0,0,3.63.42c3,0,4.15-1.32,4.15-3.3s-1.27-3.07-3.73-3.07a9.93,9.93,0,0,0-3,.57l-1.1-.85.42-9.6h10.26V3.25h-7.36l-.22,4.5a13.71,13.71,0,0,1,2.35-.2c4,0,5.85,2.2,5.85,5.57,0,3.8-2.52,6.38-7.18,6.38a19.9,19.9,0,0,1-4.1-.38Z"/><path class="cls-1" d="M126.56,9.82c0-6.47,1.77-9.67,6.4-9.67s6.4,3.27,6.4,9.67-1.77,9.68-6.4,9.68S126.56,16.27,126.56,9.82Zm9.45,0c0-4.75-.77-6.8-3-6.8s-3.05,2.05-3.05,6.8.75,6.8,3.05,6.8S136,14.55,136,9.82Z"/><path class="cls-1" d="M142.27,16.05a13.43,13.43,0,0,0,3.75.6c3.15,0,4.35-1.25,4.35-2.95S149.14,11,146.52,11h-2.73l.55-2.7h1.18c3.2,0,4.45-1.15,4.45-2.92,0-1.93-1.4-2.43-3.4-2.43a11.32,11.32,0,0,0-3.9.8V.85A14.11,14.11,0,0,1,147.59,0c4,0,5.66,2,5.66,4.75a4.79,4.79,0,0,1-3.08,4.43,4.34,4.34,0,0,1,3.7,4.47c0,3.23-2.55,5.85-7.35,5.85a13.62,13.62,0,0,1-4.25-.55Z"/><path class="cls-1" d="M157.27,10.67h6.38v2.58h-6.38Z"/><path class="cls-1" d="M173.81,19.17v-4.3H166.1V12L172.78.15H177v12h2.43v2.77H177v4.3Zm0-7.07V3.57l-4.63,8.53Z"/><path class="cls-1" d="M183,17.9c3.32-1.58,6.15-3.58,7.37-6.53a6.42,6.42,0,0,1-3.37.8c-2.78,0-5.38-2-5.38-5.77,0-3.95,2.83-6.38,6.53-6.38,3.92,0,6.15,2.68,6.15,7.25,0,5.7-3.43,10.05-9.55,12.77Zm7.92-9.38c.05-.45.1-.92.1-1.22,0-2.95-1.1-4.5-3.12-4.5a3,3,0,0,0-3,3.25c0,2.07,1.12,3.42,3.2,3.42A4.38,4.38,0,0,0,190.91,8.52Z"/><path class="cls-1" d="M197.27,16.05a13.43,13.43,0,0,0,3.75.6c3.15,0,4.35-1.25,4.35-2.95S204.14,11,201.52,11h-2.73l.55-2.7h1.18c3.2,0,4.45-1.15,4.45-2.92,0-1.93-1.4-2.43-3.4-2.43a11.32,11.32,0,0,0-3.9.8V.85A14.11,14.11,0,0,1,202.59,0c4,0,5.66,2,5.66,4.75a4.79,4.79,0,0,1-3.08,4.43,4.34,4.34,0,0,1,3.7,4.47c0,3.23-2.55,5.85-7.35,5.85a13.62,13.62,0,0,1-4.25-.55Z"/><path class="cls-1" d="M212.47,16.05a13.51,13.51,0,0,0,3.76.6c3.15,0,4.35-1.25,4.35-2.95S219.35,11,216.73,11H214l.55-2.7h1.18c3.2,0,4.45-1.15,4.45-2.92,0-1.93-1.4-2.43-3.4-2.43a11.33,11.33,0,0,0-3.91.8V.85A14.21,14.21,0,0,1,217.8,0c4,0,5.65,2,5.65,4.75a4.78,4.78,0,0,1-3.07,4.43,4.35,4.35,0,0,1,3.7,4.47c0,3.23-2.55,5.85-7.35,5.85a13.69,13.69,0,0,1-4.26-.55Z"/></g></g></svg>